<svg width="800" height="800" viewBox="0 0 400 400" xmlns="http://www.w3.org/2000/svg">
  <defs>
    <linearGradient id="bgGradPates" x1="0%" y1="0%" x2="100%" y2="100%">
      <stop offset="0%" style="stop-color:#F7D07A;stop-opacity:1" />
      <stop offset="100%" style="stop-color:#CE5A2B;stop-opacity:1" />
    </linearGradient>
    <clipPath id="platePates"><circle cx="190" cy="210" r="102" /></clipPath>
  </defs>

  <rect width="400" height="400" fill="url(#bgGradPates)" rx="40" />

  <!-- Assiette -->
  <ellipse cx="190" cy="340" rx="128" ry="14" fill="rgba(0,0,0,0.16)" />
  <circle cx="190" cy="210" r="128" fill="#FFFDF8" />
  <circle cx="190" cy="210" r="112" fill="#EFE2C9" />
  <circle cx="190" cy="210" r="102" fill="#FCF7EC" />

  <!-- Nid : 3 brins de spaghetti entrelacés -->
  <g fill="none" stroke-linecap="round" clip-path="url(#platePates)">
    <g stroke-linecap="round">
      <path d="M204.0 210.0 C204.1 210.5, 204.6 212.1, 204.7 213.3 C204.8 214.4, 204.8 215.7, 204.6 216.9 C204.5 218.1, 204.1 219.4, 203.6 220.6 C203.2 221.8, 202.5 223.0, 201.7 224.2 C200.9 225.3, 199.9 226.4, 198.8 227.3 C197.7 228.3, 196.5 229.2, 195.1 229.9 C193.7 230.6, 192.2 231.2, 190.7 231.6 C189.1 232.0, 187.4 232.3, 185.7 232.3 C184.0 232.4, 182.2 232.2, 180.5 231.9 C178.8 231.5, 177.0 230.9, 175.3 230.2 C173.7 229.4, 172.0 228.4, 170.5 227.2 C169.0 226.0, 167.5 224.6, 166.2 223.0 C165.0 221.5, 163.8 219.7, 162.9 217.8 C162.0 216.0, 161.2 213.9, 160.8 211.8 C160.3 209.7, 160.0 207.4, 160.0 205.2 C160.0 203.0, 160.2 200.6, 160.7 198.4 C161.3 196.1, 162.0 193.8, 163.1 191.7 C164.1 189.5, 165.4 187.4, 167.0 185.4 C168.5 183.5, 170.4 181.6, 172.4 180.1 C174.4 178.5, 176.6 177.0, 179.0 175.9 C181.4 174.7, 183.9 173.8, 186.6 173.2 C189.2 172.6, 192.1 172.3, 194.8 172.3 C197.6 172.3, 200.5 172.6, 203.3 173.2 C206.1 173.8, 209.0 174.8, 211.6 176.1 C214.3 177.4, 216.9 179.0, 219.3 180.9 C221.6 182.7, 223.9 184.9, 225.9 187.4 C227.8 189.8, 229.6 192.5, 231.0 195.4 C232.4 198.2, 233.5 201.3, 234.3 204.5 C235.0 207.7, 235.4 211.1, 235.5 214.4 C235.5 217.8, 235.2 221.2, 234.4 224.6 C233.7 227.9, 232.6 231.3, 231.1 234.5 C229.7 237.7, 227.8 240.8, 225.6 243.6 C223.4 246.4, 220.8 249.1, 218.0 251.5 C215.2 253.8, 212.0 255.9, 208.7 257.6 C205.4 259.3, 201.7 260.7, 198.0 261.6 C194.3 262.6, 190.4 263.1, 186.5 263.2 C182.6 263.3, 178.5 263.0, 174.6 262.2 C170.7 261.4, 166.8 260.2, 163.1 258.6 C159.4 256.9, 155.7 254.8, 152.4 252.3 C149.1 249.9, 145.9 246.9, 143.2 243.7 C140.5 240.6, 138.0 236.9, 136.0 233.2 C133.9 229.4, 132.3 225.2, 131.1 221.0 C130.0 216.8, 129.3 212.3, 129.1 207.9 C128.9 203.4, 129.1 198.8, 129.9 194.3 C130.7 189.9, 132.1 185.4, 133.8 181.1 C135.6 176.9, 137.9 172.7, 140.7 168.8 C143.4 165.0, 146.6 161.4, 150.2 158.2 C153.7 155.0, 157.7 152.1, 162.0 149.8 C166.2 147.4, 170.8 145.4, 175.6 144.0 C180.3 142.6, 185.3 141.7, 190.3 141.4 C195.3 141.0, 200.5 141.3, 205.5 142.0 C210.5 142.8, 215.6 144.2, 220.4 146.1 C225.2 148.0, 230.0 150.5, 234.3 153.4 C238.7 156.3, 242.8 159.9, 246.5 163.7 C250.1 167.6, 253.4 172.0, 256.2 176.7 C258.9 181.3, 261.2 186.4, 262.9 191.7 C264.6 196.9, 265.7 202.5, 266.2 208.0 C266.7 213.5, 266.6 219.3, 265.9 224.9 C265.2 230.5, 263.8 236.2, 261.8 241.5 C259.9 246.9, 257.2 252.2, 254.1 257.1 C251.0 262.0, 247.2 266.7, 243.0 270.8 C238.8 274.9, 234.0 278.7, 229.0 281.8 C223.9 285.0, 218.4 287.7, 212.7 289.7 C207.0 291.7, 200.9 293.1, 194.8 293.8 C188.7 294.5, 182.4 294.5, 176.2 293.9 C170.1 293.2, 163.8 291.9, 157.8 289.9 C151.9 287.9, 146.0 285.1, 140.6 281.8 C135.1 278.5, 129.9 274.5, 125.3 270.0 C120.7 265.6, 116.4 260.5, 112.8 255.0 C109.2 249.6, 106.1 243.6, 103.8 237.4 C101.5 231.3, 99.6 221.3, 98.8 218.0" stroke="#B87C27" stroke-width="8.5" opacity="0.45" transform="translate(0,3.5)" />
      <path d="M214.4 210.0 C214.5 210.9, 214.9 213.7, 214.9 215.6 C214.8 217.5, 214.6 219.4, 214.1 221.3 C213.6 223.2, 212.8 225.2, 211.9 227.0 C210.9 228.8, 209.7 230.6, 208.3 232.2 C206.9 233.8, 205.3 235.3, 203.5 236.6 C201.8 237.9, 199.8 239.1, 197.7 240.0 C195.6 240.9, 193.3 241.6, 191.0 242.0 C188.7 242.5, 186.2 242.7, 183.8 242.5 C181.3 242.4, 178.8 242.1, 176.4 241.4 C174.0 240.7, 171.5 239.8, 169.2 238.6 C166.9 237.3, 164.7 235.8, 162.7 234.1 C160.6 232.3, 158.7 230.3, 157.1 228.0 C155.5 225.8, 154.0 223.3, 152.9 220.7 C151.8 218.1, 150.9 215.3, 150.4 212.4 C149.8 209.6, 149.6 206.6, 149.7 203.6 C149.8 200.6, 150.3 197.5, 151.1 194.5 C151.9 191.6, 153.0 188.6, 154.5 185.8 C156.0 183.0, 157.8 180.3, 159.9 177.8 C162.0 175.4, 164.4 173.1, 167.1 171.1 C169.7 169.1, 172.7 167.4, 175.8 166.0 C178.9 164.6, 182.2 163.5, 185.6 162.9 C189.0 162.2, 192.6 161.9, 196.2 162.0 C199.7 162.1, 203.4 162.5, 206.9 163.4 C210.4 164.3, 213.9 165.6, 217.2 167.3 C220.5 169.0, 223.7 171.1, 226.6 173.5 C229.6 175.9, 232.3 178.8, 234.6 181.8 C237.0 184.9, 239.1 188.3, 240.8 191.9 C242.4 195.4, 243.7 199.3, 244.6 203.2 C245.4 207.2, 245.9 211.3, 245.8 215.4 C245.8 219.5, 245.3 223.7, 244.3 227.8 C243.4 231.9, 241.9 236.0, 240.1 239.8 C238.2 243.6, 235.9 247.4, 233.2 250.8 C230.4 254.1, 227.3 257.3, 223.8 260.1 C220.4 262.9, 216.5 265.3, 212.5 267.3 C208.4 269.3, 204.1 270.8, 199.6 271.9 C195.2 272.9, 190.4 273.5, 185.8 273.6 C181.1 273.6, 176.3 273.2, 171.7 272.2 C167.1 271.2, 162.4 269.7, 158.1 267.7 C153.7 265.6, 149.4 263.1, 145.5 260.1 C141.6 257.1, 138.0 253.6, 134.8 249.8 C131.6 246.0, 128.7 241.7, 126.4 237.2 C124.1 232.8, 122.2 227.9, 120.9 222.9 C119.6 218.0, 118.8 212.7, 118.7 207.5 C118.5 202.3, 118.9 196.9, 119.9 191.7 C120.9 186.5, 122.5 181.3, 124.6 176.3 C126.7 171.4, 129.5 166.6, 132.7 162.2 C135.9 157.8, 139.7 153.6, 143.8 150.0 C148.0 146.3, 152.7 143.0, 157.6 140.3 C162.5 137.7, 167.9 135.4, 173.3 133.9 C178.8 132.3, 184.6 131.3, 190.3 131.0 C196.1 130.6, 202.1 130.9, 207.8 131.9 C213.6 132.8, 219.4 134.5, 224.9 136.7 C230.4 138.9, 235.8 141.8, 240.7 145.2 C245.7 148.6, 250.4 152.7, 254.5 157.2 C258.6 161.6, 262.4 166.7, 265.5 172.0 C268.5 177.3, 271.1 183.2, 273.0 189.1 C274.9 195.1, 276.1 201.4, 276.6 207.7 C277.2 214.0, 277.0 220.6, 276.1 226.9 C275.2 233.2, 273.6 239.7, 271.4 245.7 C269.1 251.8, 266.1 257.8, 262.5 263.3 C258.9 268.7, 254.6 274.0, 249.8 278.6 C245.1 283.2, 239.7 287.5, 233.9 291.0 C228.2 294.5, 221.9 297.5, 215.5 299.7 C209.1 301.9, 202.2 303.4, 195.4 304.2 C188.6 304.9, 181.4 304.9, 174.5 304.1 C167.6 303.4, 160.6 301.8, 154.0 299.5 C147.3 297.2, 140.7 294.1, 134.7 290.4 C128.6 286.7, 122.8 282.1, 117.7 277.1 C112.5 272.1, 107.8 266.4, 103.8 260.3 C99.8 254.2, 96.4 247.5, 93.9 240.6 C91.3 233.7, 89.3 222.6, 88.4 219.0" stroke="#B87C27" stroke-width="8.5" opacity="0.45" transform="translate(0,3.5)" />
      <path d="M224.8 210.0 C224.8 211.3, 225.3 215.2, 225.0 217.8 C224.8 220.5, 224.3 223.2, 223.5 225.8 C222.6 228.3, 221.5 230.9, 220.1 233.3 C218.7 235.8, 216.9 238.1, 215.0 240.2 C213.0 242.3, 210.7 244.2, 208.3 245.9 C205.8 247.5, 203.1 249.0, 200.3 250.1 C197.4 251.2, 194.4 252.0, 191.3 252.4 C188.2 252.9, 185.0 253.0, 181.8 252.8 C178.6 252.5, 175.4 251.9, 172.2 250.9 C169.1 250.0, 166.0 248.6, 163.1 247.0 C160.2 245.3, 157.4 243.2, 154.9 240.9 C152.3 238.6, 150.0 235.9, 148.0 233.0 C146.0 230.2, 144.3 226.9, 142.9 223.6 C141.6 220.3, 140.6 216.7, 140.0 213.1 C139.4 209.5, 139.2 205.7, 139.5 201.9 C139.7 198.2, 140.3 194.4, 141.4 190.7 C142.5 187.0, 144.0 183.3, 145.9 179.9 C147.8 176.5, 150.1 173.2, 152.8 170.2 C155.4 167.3, 158.5 164.5, 161.8 162.1 C165.1 159.8, 168.8 157.7, 172.6 156.1 C176.4 154.5, 180.5 153.2, 184.7 152.5 C188.8 151.8, 193.2 151.5, 197.5 151.6 C201.8 151.8, 206.2 152.5, 210.4 153.7 C214.6 154.8, 218.9 156.5, 222.8 158.5 C226.7 160.6, 230.6 163.2, 234.0 166.2 C237.5 169.1, 240.7 172.6, 243.4 176.3 C246.2 180.0, 248.6 184.1, 250.5 188.4 C252.5 192.6, 254.0 197.3, 254.9 202.0 C255.8 206.6, 256.3 211.6, 256.2 216.4 C256.1 221.3, 255.4 226.3, 254.2 231.1 C253.0 235.8, 251.3 240.6, 249.0 245.1 C246.8 249.6, 243.9 254.0, 240.7 257.9 C237.5 261.8, 233.7 265.5, 229.7 268.7 C225.6 271.9, 221.0 274.7, 216.3 277.0 C211.5 279.2, 206.4 281.0, 201.2 282.2 C196.0 283.3, 190.5 284.0, 185.1 284.0 C179.7 284.0, 174.1 283.4, 168.8 282.2 C163.4 281.0, 158.0 279.1, 153.0 276.7 C148.0 274.4, 143.1 271.4, 138.6 267.9 C134.2 264.4, 130.0 260.3, 126.3 255.9 C122.7 251.5, 119.4 246.5, 116.8 241.3 C114.2 236.2, 112.1 230.5, 110.7 224.8 C109.3 219.1, 108.4 213.1, 108.3 207.1 C108.1 201.2, 108.6 195.0, 109.8 189.1 C111.0 183.2, 112.9 177.2, 115.3 171.6 C117.8 166.0, 121.0 160.5, 124.7 155.5 C128.4 150.5, 132.7 145.8, 137.5 141.7 C142.2 137.6, 147.6 133.9, 153.2 130.9 C158.8 127.9, 164.9 125.4, 171.1 123.7 C177.3 122.0, 183.9 120.9, 190.4 120.6 C196.9 120.3, 203.6 120.6, 210.1 121.8 C216.6 122.9, 223.2 124.7, 229.4 127.3 C235.6 129.8, 241.6 133.1, 247.2 137.0 C252.7 140.9, 258.0 145.5, 262.6 150.6 C267.2 155.6, 271.3 161.3, 274.8 167.3 C278.2 173.3, 281.0 179.9, 283.1 186.6 C285.1 193.3, 286.5 200.4, 287.0 207.4 C287.6 214.5, 287.4 221.8, 286.3 228.9 C285.3 236.0, 283.5 243.1, 280.9 249.9 C278.3 256.6, 274.9 263.3, 270.9 269.4 C266.8 275.5, 262.0 281.3, 256.7 286.5 C251.3 291.6, 245.3 296.2, 238.9 300.1 C232.5 304.0, 225.5 307.3, 218.4 309.7 C211.2 312.1, 203.6 313.8, 196.0 314.5 C188.4 315.3, 180.5 315.3, 172.8 314.4 C165.2 313.5, 157.4 311.7, 150.1 309.2 C142.7 306.6, 135.4 303.1, 128.8 299.0 C122.1 294.8, 115.7 289.8, 110.0 284.2 C104.4 278.6, 99.2 272.2, 94.8 265.5 C90.5 258.8, 86.8 251.3, 84.0 243.7 C81.2 236.1, 79.1 223.8, 78.1 219.9" stroke="#B87C27" stroke-width="8.5" opacity="0.45" transform="translate(0,3.5)" />
    </g>
    <g stroke-linecap="round">
      <path d="M204.0 210.0 C204.1 210.5, 204.6 212.1, 204.7 213.3 C204.8 214.4, 204.8 215.7, 204.6 216.9 C204.5 218.1, 204.1 219.4, 203.6 220.6 C203.2 221.8, 202.5 223.0, 201.7 224.2 C200.9 225.3, 199.9 226.4, 198.8 227.3 C197.7 228.3, 196.5 229.2, 195.1 229.9 C193.7 230.6, 192.2 231.2, 190.7 231.6 C189.1 232.0, 187.4 232.3, 185.7 232.3 C184.0 232.4, 182.2 232.2, 180.5 231.9 C178.8 231.5, 177.0 230.9, 175.3 230.2 C173.7 229.4, 172.0 228.4, 170.5 227.2 C169.0 226.0, 167.5 224.6, 166.2 223.0 C165.0 221.5, 163.8 219.7, 162.9 217.8 C162.0 216.0, 161.2 213.9, 160.8 211.8 C160.3 209.7, 160.0 207.4, 160.0 205.2 C160.0 203.0, 160.2 200.6, 160.7 198.4 C161.3 196.1, 162.0 193.8, 163.1 191.7 C164.1 189.5, 165.4 187.4, 167.0 185.4 C168.5 183.5, 170.4 181.6, 172.4 180.1 C174.4 178.5, 176.6 177.0, 179.0 175.9 C181.4 174.7, 183.9 173.8, 186.6 173.2 C189.2 172.6, 192.1 172.3, 194.8 172.3 C197.6 172.3, 200.5 172.6, 203.3 173.2 C206.1 173.8, 209.0 174.8, 211.6 176.1 C214.3 177.4, 216.9 179.0, 219.3 180.9 C221.6 182.7, 223.9 184.9, 225.9 187.4 C227.8 189.8, 229.6 192.5, 231.0 195.4 C232.4 198.2, 233.5 201.3, 234.3 204.5 C235.0 207.7, 235.4 211.1, 235.5 214.4 C235.5 217.8, 235.2 221.2, 234.4 224.6 C233.7 227.9, 232.6 231.3, 231.1 234.5 C229.7 237.7, 227.8 240.8, 225.6 243.6 C223.4 246.4, 220.8 249.1, 218.0 251.5 C215.2 253.8, 212.0 255.9, 208.7 257.6 C205.4 259.3, 201.7 260.7, 198.0 261.6 C194.3 262.6, 190.4 263.1, 186.5 263.2 C182.6 263.3, 178.5 263.0, 174.6 262.2 C170.7 261.4, 166.8 260.2, 163.1 258.6 C159.4 256.9, 155.7 254.8, 152.4 252.3 C149.1 249.9, 145.9 246.9, 143.2 243.7 C140.5 240.6, 138.0 236.9, 136.0 233.2 C133.9 229.4, 132.3 225.2, 131.1 221.0 C130.0 216.8, 129.3 212.3, 129.1 207.9 C128.9 203.4, 129.1 198.8, 129.9 194.3 C130.7 189.9, 132.1 185.4, 133.8 181.1 C135.6 176.9, 137.9 172.7, 140.7 168.8 C143.4 165.0, 146.6 161.4, 150.2 158.2 C153.7 155.0, 157.7 152.1, 162.0 149.8 C166.2 147.4, 170.8 145.4, 175.6 144.0 C180.3 142.6, 185.3 141.7, 190.3 141.4 C195.3 141.0, 200.5 141.3, 205.5 142.0 C210.5 142.8, 215.6 144.2, 220.4 146.1 C225.2 148.0, 230.0 150.5, 234.3 153.4 C238.7 156.3, 242.8 159.9, 246.5 163.7 C250.1 167.6, 253.4 172.0, 256.2 176.7 C258.9 181.3, 261.2 186.4, 262.9 191.7 C264.6 196.9, 265.7 202.5, 266.2 208.0 C266.7 213.5, 266.6 219.3, 265.9 224.9 C265.2 230.5, 263.8 236.2, 261.8 241.5 C259.9 246.9, 257.2 252.2, 254.1 257.1 C251.0 262.0, 247.2 266.7, 243.0 270.8 C238.8 274.9, 234.0 278.7, 229.0 281.8 C223.9 285.0, 218.4 287.7, 212.7 289.7 C207.0 291.7, 200.9 293.1, 194.8 293.8 C188.7 294.5, 182.4 294.5, 176.2 293.9 C170.1 293.2, 163.8 291.9, 157.8 289.9 C151.9 287.9, 146.0 285.1, 140.6 281.8 C135.1 278.5, 129.9 274.5, 125.3 270.0 C120.7 265.6, 116.4 260.5, 112.8 255.0 C109.2 249.6, 106.1 243.6, 103.8 237.4 C101.5 231.3, 99.6 221.3, 98.8 218.0" stroke="#F0BE45" stroke-width="7" />
      <path d="M214.4 210.0 C214.5 210.9, 214.9 213.7, 214.9 215.6 C214.8 217.5, 214.6 219.4, 214.1 221.3 C213.6 223.2, 212.8 225.2, 211.9 227.0 C210.9 228.8, 209.7 230.6, 208.3 232.2 C206.9 233.8, 205.3 235.3, 203.5 236.6 C201.8 237.9, 199.8 239.1, 197.7 240.0 C195.6 240.9, 193.3 241.6, 191.0 242.0 C188.7 242.5, 186.2 242.7, 183.8 242.5 C181.3 242.4, 178.8 242.1, 176.4 241.4 C174.0 240.7, 171.5 239.8, 169.2 238.6 C166.9 237.3, 164.7 235.8, 162.7 234.1 C160.6 232.3, 158.7 230.3, 157.1 228.0 C155.5 225.8, 154.0 223.3, 152.9 220.7 C151.8 218.1, 150.9 215.3, 150.4 212.4 C149.8 209.6, 149.6 206.6, 149.7 203.6 C149.8 200.6, 150.3 197.5, 151.1 194.5 C151.9 191.6, 153.0 188.6, 154.5 185.8 C156.0 183.0, 157.8 180.3, 159.9 177.8 C162.0 175.4, 164.4 173.1, 167.1 171.1 C169.7 169.1, 172.7 167.4, 175.8 166.0 C178.9 164.6, 182.2 163.5, 185.6 162.9 C189.0 162.2, 192.6 161.9, 196.2 162.0 C199.7 162.1, 203.4 162.5, 206.9 163.4 C210.4 164.3, 213.9 165.6, 217.2 167.3 C220.5 169.0, 223.7 171.1, 226.6 173.5 C229.6 175.9, 232.3 178.8, 234.6 181.8 C237.0 184.9, 239.1 188.3, 240.8 191.9 C242.4 195.4, 243.7 199.3, 244.6 203.2 C245.4 207.2, 245.9 211.3, 245.8 215.4 C245.8 219.5, 245.3 223.7, 244.3 227.8 C243.4 231.9, 241.9 236.0, 240.1 239.8 C238.2 243.6, 235.9 247.4, 233.2 250.8 C230.4 254.1, 227.3 257.3, 223.8 260.1 C220.4 262.9, 216.5 265.3, 212.5 267.3 C208.4 269.3, 204.1 270.8, 199.6 271.9 C195.2 272.9, 190.4 273.5, 185.8 273.6 C181.1 273.6, 176.3 273.2, 171.7 272.2 C167.1 271.2, 162.4 269.7, 158.1 267.7 C153.7 265.6, 149.4 263.1, 145.5 260.1 C141.6 257.1, 138.0 253.6, 134.8 249.8 C131.6 246.0, 128.7 241.7, 126.4 237.2 C124.1 232.8, 122.2 227.9, 120.9 222.9 C119.6 218.0, 118.8 212.7, 118.7 207.5 C118.5 202.3, 118.9 196.9, 119.9 191.7 C120.9 186.5, 122.5 181.3, 124.6 176.3 C126.7 171.4, 129.5 166.6, 132.7 162.2 C135.9 157.8, 139.7 153.6, 143.8 150.0 C148.0 146.3, 152.7 143.0, 157.6 140.3 C162.5 137.7, 167.9 135.4, 173.3 133.9 C178.8 132.3, 184.6 131.3, 190.3 131.0 C196.1 130.6, 202.1 130.9, 207.8 131.9 C213.6 132.8, 219.4 134.5, 224.9 136.7 C230.4 138.9, 235.8 141.8, 240.7 145.2 C245.7 148.6, 250.4 152.7, 254.5 157.2 C258.6 161.6, 262.4 166.7, 265.5 172.0 C268.5 177.3, 271.1 183.2, 273.0 189.1 C274.9 195.1, 276.1 201.4, 276.6 207.7 C277.2 214.0, 277.0 220.6, 276.1 226.9 C275.2 233.2, 273.6 239.7, 271.4 245.7 C269.1 251.8, 266.1 257.8, 262.5 263.3 C258.9 268.7, 254.6 274.0, 249.8 278.6 C245.1 283.2, 239.7 287.5, 233.9 291.0 C228.2 294.5, 221.9 297.5, 215.5 299.7 C209.1 301.9, 202.2 303.4, 195.4 304.2 C188.6 304.9, 181.4 304.9, 174.5 304.1 C167.6 303.4, 160.6 301.8, 154.0 299.5 C147.3 297.2, 140.7 294.1, 134.7 290.4 C128.6 286.7, 122.8 282.1, 117.7 277.1 C112.5 272.1, 107.8 266.4, 103.8 260.3 C99.8 254.2, 96.4 247.5, 93.9 240.6 C91.3 233.7, 89.3 222.6, 88.4 219.0" stroke="#F0BE45" stroke-width="7" />
      <path d="M224.8 210.0 C224.8 211.3, 225.3 215.2, 225.0 217.8 C224.8 220.5, 224.3 223.2, 223.5 225.8 C222.6 228.3, 221.5 230.9, 220.1 233.3 C218.7 235.8, 216.9 238.1, 215.0 240.2 C213.0 242.3, 210.7 244.2, 208.3 245.9 C205.8 247.5, 203.1 249.0, 200.3 250.1 C197.4 251.2, 194.4 252.0, 191.3 252.4 C188.2 252.9, 185.0 253.0, 181.8 252.8 C178.6 252.5, 175.4 251.9, 172.2 250.9 C169.1 250.0, 166.0 248.6, 163.1 247.0 C160.2 245.3, 157.4 243.2, 154.9 240.9 C152.3 238.6, 150.0 235.9, 148.0 233.0 C146.0 230.2, 144.3 226.9, 142.9 223.6 C141.6 220.3, 140.6 216.7, 140.0 213.1 C139.4 209.5, 139.2 205.7, 139.5 201.9 C139.7 198.2, 140.3 194.4, 141.4 190.7 C142.5 187.0, 144.0 183.3, 145.9 179.9 C147.8 176.5, 150.1 173.2, 152.8 170.2 C155.4 167.3, 158.5 164.5, 161.8 162.1 C165.1 159.8, 168.8 157.7, 172.6 156.1 C176.4 154.5, 180.5 153.2, 184.7 152.5 C188.8 151.8, 193.2 151.5, 197.5 151.6 C201.8 151.8, 206.2 152.5, 210.4 153.7 C214.6 154.8, 218.9 156.5, 222.8 158.5 C226.7 160.6, 230.6 163.2, 234.0 166.2 C237.5 169.1, 240.7 172.6, 243.4 176.3 C246.2 180.0, 248.6 184.1, 250.5 188.4 C252.5 192.6, 254.0 197.3, 254.9 202.0 C255.8 206.6, 256.3 211.6, 256.2 216.4 C256.1 221.3, 255.4 226.3, 254.2 231.1 C253.0 235.8, 251.3 240.6, 249.0 245.1 C246.8 249.6, 243.9 254.0, 240.7 257.9 C237.5 261.8, 233.7 265.5, 229.7 268.7 C225.6 271.9, 221.0 274.7, 216.3 277.0 C211.5 279.2, 206.4 281.0, 201.2 282.2 C196.0 283.3, 190.5 284.0, 185.1 284.0 C179.7 284.0, 174.1 283.4, 168.8 282.2 C163.4 281.0, 158.0 279.1, 153.0 276.7 C148.0 274.4, 143.1 271.4, 138.6 267.9 C134.2 264.4, 130.0 260.3, 126.3 255.9 C122.7 251.5, 119.4 246.5, 116.8 241.3 C114.2 236.2, 112.1 230.5, 110.7 224.8 C109.3 219.1, 108.4 213.1, 108.3 207.1 C108.1 201.2, 108.6 195.0, 109.8 189.1 C111.0 183.2, 112.9 177.2, 115.3 171.6 C117.8 166.0, 121.0 160.5, 124.7 155.5 C128.4 150.5, 132.7 145.8, 137.5 141.7 C142.2 137.6, 147.6 133.9, 153.2 130.9 C158.8 127.9, 164.9 125.4, 171.1 123.7 C177.3 122.0, 183.9 120.9, 190.4 120.6 C196.9 120.3, 203.6 120.6, 210.1 121.8 C216.6 122.9, 223.2 124.7, 229.4 127.3 C235.6 129.8, 241.6 133.1, 247.2 137.0 C252.7 140.9, 258.0 145.5, 262.6 150.6 C267.2 155.6, 271.3 161.3, 274.8 167.3 C278.2 173.3, 281.0 179.9, 283.1 186.6 C285.1 193.3, 286.5 200.4, 287.0 207.4 C287.6 214.5, 287.4 221.8, 286.3 228.9 C285.3 236.0, 283.5 243.1, 280.9 249.9 C278.3 256.6, 274.9 263.3, 270.9 269.4 C266.8 275.5, 262.0 281.3, 256.7 286.5 C251.3 291.6, 245.3 296.2, 238.9 300.1 C232.5 304.0, 225.5 307.3, 218.4 309.7 C211.2 312.1, 203.6 313.8, 196.0 314.5 C188.4 315.3, 180.5 315.3, 172.8 314.4 C165.2 313.5, 157.4 311.7, 150.1 309.2 C142.7 306.6, 135.4 303.1, 128.8 299.0 C122.1 294.8, 115.7 289.8, 110.0 284.2 C104.4 278.6, 99.2 272.2, 94.8 265.5 C90.5 258.8, 86.8 251.3, 84.0 243.7 C81.2 236.1, 79.1 223.8, 78.1 219.9" stroke="#F0BE45" stroke-width="7" />
    </g>
    <g stroke-linecap="round">
      <path d="M204.0 210.0 C204.1 210.5, 204.6 212.1, 204.7 213.3 C204.8 214.4, 204.8 215.7, 204.6 216.9 C204.5 218.1, 204.1 219.4, 203.6 220.6 C203.2 221.8, 202.5 223.0, 201.7 224.2 C200.9 225.3, 199.9 226.4, 198.8 227.3 C197.7 228.3, 196.5 229.2, 195.1 229.9 C193.7 230.6, 192.2 231.2, 190.7 231.6 C189.1 232.0, 187.4 232.3, 185.7 232.3 C184.0 232.4, 182.2 232.2, 180.5 231.9 C178.8 231.5, 177.0 230.9, 175.3 230.2 C173.7 229.4, 172.0 228.4, 170.5 227.2 C169.0 226.0, 167.5 224.6, 166.2 223.0 C165.0 221.5, 163.8 219.7, 162.9 217.8 C162.0 216.0, 161.2 213.9, 160.8 211.8 C160.3 209.7, 160.0 207.4, 160.0 205.2 C160.0 203.0, 160.2 200.6, 160.7 198.4 C161.3 196.1, 162.0 193.8, 163.1 191.7 C164.1 189.5, 165.4 187.4, 167.0 185.4 C168.5 183.5, 170.4 181.6, 172.4 180.1 C174.4 178.5, 176.6 177.0, 179.0 175.9 C181.4 174.7, 183.9 173.8, 186.6 173.2 C189.2 172.6, 192.1 172.3, 194.8 172.3 C197.6 172.3, 200.5 172.6, 203.3 173.2 C206.1 173.8, 209.0 174.8, 211.6 176.1 C214.3 177.4, 216.9 179.0, 219.3 180.9 C221.6 182.7, 223.9 184.9, 225.9 187.4 C227.8 189.8, 229.6 192.5, 231.0 195.4 C232.4 198.2, 233.5 201.3, 234.3 204.5 C235.0 207.7, 235.4 211.1, 235.5 214.4 C235.5 217.8, 235.2 221.2, 234.4 224.6 C233.7 227.9, 232.6 231.3, 231.1 234.5 C229.7 237.7, 227.8 240.8, 225.6 243.6 C223.4 246.4, 220.8 249.1, 218.0 251.5 C215.2 253.8, 212.0 255.9, 208.7 257.6 C205.4 259.3, 201.7 260.7, 198.0 261.6 C194.3 262.6, 190.4 263.1, 186.5 263.2 C182.6 263.3, 178.5 263.0, 174.6 262.2 C170.7 261.4, 166.8 260.2, 163.1 258.6 C159.4 256.9, 155.7 254.8, 152.4 252.3 C149.1 249.9, 145.9 246.9, 143.2 243.7 C140.5 240.6, 138.0 236.9, 136.0 233.2 C133.9 229.4, 132.3 225.2, 131.1 221.0 C130.0 216.8, 129.3 212.3, 129.1 207.9 C128.9 203.4, 129.1 198.8, 129.9 194.3 C130.7 189.9, 132.1 185.4, 133.8 181.1 C135.6 176.9, 137.9 172.7, 140.7 168.8 C143.4 165.0, 146.6 161.4, 150.2 158.2 C153.7 155.0, 157.7 152.1, 162.0 149.8 C166.2 147.4, 170.8 145.4, 175.6 144.0 C180.3 142.6, 185.3 141.7, 190.3 141.4 C195.3 141.0, 200.5 141.3, 205.5 142.0 C210.5 142.8, 215.6 144.2, 220.4 146.1 C225.2 148.0, 230.0 150.5, 234.3 153.4 C238.7 156.3, 242.8 159.9, 246.5 163.7 C250.1 167.6, 253.4 172.0, 256.2 176.7 C258.9 181.3, 261.2 186.4, 262.9 191.7 C264.6 196.9, 265.7 202.5, 266.2 208.0 C266.7 213.5, 266.6 219.3, 265.9 224.9 C265.2 230.5, 263.8 236.2, 261.8 241.5 C259.9 246.9, 257.2 252.2, 254.1 257.1 C251.0 262.0, 247.2 266.7, 243.0 270.8 C238.8 274.9, 234.0 278.7, 229.0 281.8 C223.9 285.0, 218.4 287.7, 212.7 289.7 C207.0 291.7, 200.9 293.1, 194.8 293.8 C188.7 294.5, 182.4 294.5, 176.2 293.9 C170.1 293.2, 163.8 291.9, 157.8 289.9 C151.9 287.9, 146.0 285.1, 140.6 281.8 C135.1 278.5, 129.9 274.5, 125.3 270.0 C120.7 265.6, 116.4 260.5, 112.8 255.0 C109.2 249.6, 106.1 243.6, 103.8 237.4 C101.5 231.3, 99.6 221.3, 98.8 218.0" stroke="#FCE39B" stroke-width="2" opacity="0.8" transform="translate(-1,-1.8)" />
      <path d="M214.4 210.0 C214.5 210.9, 214.9 213.7, 214.9 215.6 C214.8 217.5, 214.6 219.4, 214.1 221.3 C213.6 223.2, 212.8 225.2, 211.9 227.0 C210.9 228.8, 209.7 230.6, 208.3 232.2 C206.9 233.8, 205.3 235.3, 203.5 236.6 C201.8 237.9, 199.8 239.1, 197.7 240.0 C195.6 240.9, 193.3 241.6, 191.0 242.0 C188.7 242.5, 186.2 242.7, 183.8 242.5 C181.3 242.4, 178.8 242.1, 176.4 241.4 C174.0 240.7, 171.5 239.8, 169.2 238.6 C166.9 237.3, 164.7 235.8, 162.7 234.1 C160.6 232.3, 158.7 230.3, 157.1 228.0 C155.5 225.8, 154.0 223.3, 152.9 220.7 C151.8 218.1, 150.9 215.3, 150.4 212.4 C149.8 209.6, 149.6 206.6, 149.7 203.6 C149.8 200.6, 150.3 197.5, 151.1 194.5 C151.9 191.6, 153.0 188.6, 154.5 185.8 C156.0 183.0, 157.8 180.3, 159.9 177.8 C162.0 175.4, 164.4 173.1, 167.1 171.1 C169.7 169.1, 172.7 167.4, 175.8 166.0 C178.9 164.6, 182.2 163.5, 185.6 162.9 C189.0 162.2, 192.6 161.9, 196.2 162.0 C199.7 162.1, 203.4 162.5, 206.9 163.4 C210.4 164.3, 213.9 165.6, 217.2 167.3 C220.5 169.0, 223.7 171.1, 226.6 173.5 C229.6 175.9, 232.3 178.8, 234.6 181.8 C237.0 184.9, 239.1 188.3, 240.8 191.9 C242.4 195.4, 243.7 199.3, 244.6 203.2 C245.4 207.2, 245.9 211.3, 245.8 215.4 C245.8 219.5, 245.3 223.7, 244.3 227.8 C243.4 231.9, 241.9 236.0, 240.1 239.8 C238.2 243.6, 235.9 247.4, 233.2 250.8 C230.4 254.1, 227.3 257.3, 223.8 260.1 C220.4 262.9, 216.5 265.3, 212.5 267.3 C208.4 269.3, 204.1 270.8, 199.6 271.9 C195.2 272.9, 190.4 273.5, 185.8 273.6 C181.1 273.6, 176.3 273.2, 171.7 272.2 C167.1 271.2, 162.4 269.7, 158.1 267.7 C153.7 265.6, 149.4 263.1, 145.5 260.1 C141.6 257.1, 138.0 253.6, 134.8 249.8 C131.6 246.0, 128.7 241.7, 126.4 237.2 C124.1 232.8, 122.2 227.9, 120.9 222.9 C119.6 218.0, 118.8 212.7, 118.7 207.5 C118.5 202.3, 118.9 196.9, 119.9 191.7 C120.9 186.5, 122.5 181.3, 124.6 176.3 C126.7 171.4, 129.5 166.6, 132.7 162.2 C135.9 157.8, 139.7 153.6, 143.8 150.0 C148.0 146.3, 152.7 143.0, 157.6 140.3 C162.5 137.7, 167.9 135.4, 173.3 133.9 C178.8 132.3, 184.6 131.3, 190.3 131.0 C196.1 130.6, 202.1 130.9, 207.8 131.9 C213.6 132.8, 219.4 134.5, 224.9 136.7 C230.4 138.9, 235.8 141.8, 240.7 145.2 C245.7 148.6, 250.4 152.7, 254.5 157.2 C258.6 161.6, 262.4 166.7, 265.5 172.0 C268.5 177.3, 271.1 183.2, 273.0 189.1 C274.9 195.1, 276.1 201.4, 276.6 207.7 C277.2 214.0, 277.0 220.6, 276.1 226.9 C275.2 233.2, 273.6 239.7, 271.4 245.7 C269.1 251.8, 266.1 257.8, 262.5 263.3 C258.9 268.7, 254.6 274.0, 249.8 278.6 C245.1 283.2, 239.7 287.5, 233.9 291.0 C228.2 294.5, 221.9 297.5, 215.5 299.7 C209.1 301.9, 202.2 303.4, 195.4 304.2 C188.6 304.9, 181.4 304.9, 174.5 304.1 C167.6 303.4, 160.6 301.8, 154.0 299.5 C147.3 297.2, 140.7 294.1, 134.7 290.4 C128.6 286.7, 122.8 282.1, 117.7 277.1 C112.5 272.1, 107.8 266.4, 103.8 260.3 C99.8 254.2, 96.4 247.5, 93.9 240.6 C91.3 233.7, 89.3 222.6, 88.4 219.0" stroke="#FCE39B" stroke-width="2" opacity="0.8" transform="translate(-1,-1.8)" />
      <path d="M224.8 210.0 C224.8 211.3, 225.3 215.2, 225.0 217.8 C224.8 220.5, 224.3 223.2, 223.5 225.8 C222.6 228.3, 221.5 230.9, 220.1 233.3 C218.7 235.8, 216.9 238.1, 215.0 240.2 C213.0 242.3, 210.7 244.2, 208.3 245.9 C205.8 247.5, 203.1 249.0, 200.3 250.1 C197.4 251.2, 194.4 252.0, 191.3 252.4 C188.2 252.9, 185.0 253.0, 181.8 252.8 C178.6 252.5, 175.4 251.9, 172.2 250.9 C169.1 250.0, 166.0 248.6, 163.1 247.0 C160.2 245.3, 157.4 243.2, 154.9 240.9 C152.3 238.6, 150.0 235.9, 148.0 233.0 C146.0 230.2, 144.3 226.9, 142.9 223.6 C141.6 220.3, 140.6 216.7, 140.0 213.1 C139.4 209.5, 139.2 205.7, 139.5 201.9 C139.7 198.2, 140.3 194.4, 141.4 190.7 C142.5 187.0, 144.0 183.3, 145.9 179.9 C147.8 176.5, 150.1 173.2, 152.8 170.2 C155.4 167.3, 158.5 164.5, 161.8 162.1 C165.1 159.8, 168.8 157.7, 172.6 156.1 C176.4 154.5, 180.5 153.2, 184.7 152.5 C188.8 151.8, 193.2 151.5, 197.5 151.6 C201.8 151.8, 206.2 152.5, 210.4 153.7 C214.6 154.8, 218.9 156.5, 222.8 158.5 C226.7 160.6, 230.6 163.2, 234.0 166.2 C237.5 169.1, 240.7 172.6, 243.4 176.3 C246.2 180.0, 248.6 184.1, 250.5 188.4 C252.5 192.6, 254.0 197.3, 254.9 202.0 C255.8 206.6, 256.3 211.6, 256.2 216.4 C256.1 221.3, 255.4 226.3, 254.2 231.1 C253.0 235.8, 251.3 240.6, 249.0 245.1 C246.8 249.6, 243.9 254.0, 240.7 257.9 C237.5 261.8, 233.7 265.5, 229.7 268.7 C225.6 271.9, 221.0 274.7, 216.3 277.0 C211.5 279.2, 206.4 281.0, 201.2 282.2 C196.0 283.3, 190.5 284.0, 185.1 284.0 C179.7 284.0, 174.1 283.4, 168.8 282.2 C163.4 281.0, 158.0 279.1, 153.0 276.7 C148.0 274.4, 143.1 271.4, 138.6 267.9 C134.2 264.4, 130.0 260.3, 126.3 255.9 C122.7 251.5, 119.4 246.5, 116.8 241.3 C114.2 236.2, 112.1 230.5, 110.7 224.8 C109.3 219.1, 108.4 213.1, 108.3 207.1 C108.1 201.2, 108.6 195.0, 109.8 189.1 C111.0 183.2, 112.9 177.2, 115.3 171.6 C117.8 166.0, 121.0 160.5, 124.7 155.5 C128.4 150.5, 132.7 145.8, 137.5 141.7 C142.2 137.6, 147.6 133.9, 153.2 130.9 C158.8 127.9, 164.9 125.4, 171.1 123.7 C177.3 122.0, 183.9 120.9, 190.4 120.6 C196.9 120.3, 203.6 120.6, 210.1 121.8 C216.6 122.9, 223.2 124.7, 229.4 127.3 C235.6 129.8, 241.6 133.1, 247.2 137.0 C252.7 140.9, 258.0 145.5, 262.6 150.6 C267.2 155.6, 271.3 161.3, 274.8 167.3 C278.2 173.3, 281.0 179.9, 283.1 186.6 C285.1 193.3, 286.5 200.4, 287.0 207.4 C287.6 214.5, 287.4 221.8, 286.3 228.9 C285.3 236.0, 283.5 243.1, 280.9 249.9 C278.3 256.6, 274.9 263.3, 270.9 269.4 C266.8 275.5, 262.0 281.3, 256.7 286.5 C251.3 291.6, 245.3 296.2, 238.9 300.1 C232.5 304.0, 225.5 307.3, 218.4 309.7 C211.2 312.1, 203.6 313.8, 196.0 314.5 C188.4 315.3, 180.5 315.3, 172.8 314.4 C165.2 313.5, 157.4 311.7, 150.1 309.2 C142.7 306.6, 135.4 303.1, 128.8 299.0 C122.1 294.8, 115.7 289.8, 110.0 284.2 C104.4 278.6, 99.2 272.2, 94.8 265.5 C90.5 258.8, 86.8 251.3, 84.0 243.7 C81.2 236.1, 79.1 223.8, 78.1 219.9" stroke="#FCE39B" stroke-width="2" opacity="0.8" transform="translate(-1,-1.8)" />
    </g>
  </g>

  <!-- Accents : tomates cerises + basilic, groupés en haut-gauche / bas-droite -->
  <g>
    <circle cx="152" cy="168" r="12" fill="#C62F21" />
    <circle cx="152" cy="168" r="9.5" fill="#E24634" />
    <circle cx="148.5" cy="164.5" r="3.2" fill="#F58269" opacity="0.85" />
    <circle cx="178" cy="150" r="8" fill="#C62F21" />
    <circle cx="178" cy="150" r="6" fill="#E24634" />
    <circle cx="240" cy="252" r="10" fill="#C62F21" />
    <circle cx="240" cy="252" r="8" fill="#E24634" />
    <circle cx="237" cy="249" r="2.6" fill="#F58269" opacity="0.85" />
  </g>
  <g>
    <path d="M200 268 q24 -14 44 0 q-17 19 -40 12 z" fill="#3E8E41" />
    <path d="M198 270 q18 -6 40 -1" stroke="#2C6B31" stroke-width="1.8" fill="none" stroke-linecap="round" />
    <path d="M140 254 q-24 -12 -44 3 q19 17 41 8 z" fill="#48A04C" />
    <path d="M139 256 q-19 -4 -39 4" stroke="#2C6B31" stroke-width="1.8" fill="none" stroke-linecap="round" />
  </g>
</svg>
