<svg width="800" height="800" viewBox="0 0 400 400" xmlns="http://www.w3.org/2000/svg">
  <defs>
    <linearGradient id="bgGradPoissons" x1="0%" y1="0%" x2="100%" y2="100%">
      <stop offset="0%" stop-color="#3BB4E5" />
      <stop offset="100%" stop-color="#14508C" />
    </linearGradient>
    <linearGradient id="fishBody" x1="0%" y1="0%" x2="0%" y2="100%">
      <stop offset="0%" stop-color="#EAF6FF" />
      <stop offset="100%" stop-color="#9FC6E8" />
    </linearGradient>
  </defs>
  <rect width="400" height="400" fill="url(#bgGradPoissons)" rx="40" />
  <path d="M200 210 L400 400 L200 400 Z" fill="rgba(0,0,0,0.15)" />

  <!-- Bulles -->
  <g fill="rgba(255,255,255,0.35)">
    <circle cx="96" cy="96" r="7" />
    <circle cx="122" cy="70" r="4" />
    <circle cx="316" cy="110" r="6" />
    <circle cx="292" cy="82" r="4" />
  </g>

  <!-- Poisson -->
  <g transform="translate(185, 185)">
    <path d="M-95 0 Q-40 -52 30 -38 Q75 -28 88 0 Q75 28 30 38 Q-40 52 -95 0 Z" fill="url(#fishBody)" stroke="#2C5F8A" stroke-width="5" stroke-linejoin="round" />
    <path d="M88 0 L128 -30 L120 0 L128 30 Z" fill="#9FC6E8" stroke="#2C5F8A" stroke-width="5" stroke-linejoin="round" />
    <path d="M-18 -44 Q0 -66 22 -44" fill="none" stroke="#2C5F8A" stroke-width="5" stroke-linecap="round" />
    <path d="M-30 0 Q-10 -18 14 0 Q-10 18 -30 0 Z" fill="#C9E2F5" stroke="#2C5F8A" stroke-width="4" />
    <circle cx="-62" cy="-8" r="7" fill="#1E3A56" />
    <path d="M-88 8 Q-80 14 -70 12" fill="none" stroke="#2C5F8A" stroke-width="4" stroke-linecap="round" />
  </g>

  <!-- Crevette -->
  <g transform="translate(255, 290) rotate(-12)">
    <path d="M-45 0 Q-45 -38 0 -38 Q45 -38 45 0 Q45 26 12 30 L12 18 Q32 16 32 0 Q32 -26 0 -26 Q-32 -26 -32 0 Z"
          fill="#F2836B" stroke="#B84A32" stroke-width="4" stroke-linejoin="round" />
    <path d="M12 30 L4 44 M12 30 L16 46 M12 30 L26 40" stroke="#B84A32" stroke-width="4" stroke-linecap="round" />
    <path d="M-45 0 Q-58 -6 -66 -18 M-45 0 Q-60 2 -70 -4" fill="none" stroke="#B84A32" stroke-width="4" stroke-linecap="round" />
    <circle cx="-38" cy="-14" r="4.5" fill="#5A1F12" />
    <path d="M-20 -32 L-16 -20 M0 -34 L0 -22 M20 -32 L16 -20" stroke="#B84A32" stroke-width="3.5" stroke-linecap="round" />
  </g>

  <!-- Vagues discrètes -->
  <path d="M60 330 Q80 320 100 330 Q120 340 140 330" fill="none" stroke="rgba(255,255,255,0.4)" stroke-width="5" stroke-linecap="round" />
  <path d="M70 352 Q90 342 110 352" fill="none" stroke="rgba(255,255,255,0.25)" stroke-width="5" stroke-linecap="round" />
</svg>
