<svg width="800" height="800" viewBox="0 0 400 400" xmlns="http://www.w3.org/2000/svg">
  <defs>
    <linearGradient id="bgSansSel" x1="0%" y1="0%" x2="100%" y2="100%">
      <stop offset="0%" style="stop-color:#AEBCC6;stop-opacity:1" />
      <stop offset="100%" style="stop-color:#677987;stop-opacity:1" />
    </linearGradient>
  </defs>
  <rect width="400" height="400" fill="url(#bgSansSel)" rx="40" />
  <path d="M200 210 L400 400 L200 400 Z" fill="rgba(0,0,0,0.13)" />
  <!-- Salière -->
  <g transform="translate(200,208)">
    <path d="M-40 76 L-40 -18 Q-40 -40 0 -40 Q40 -40 40 -18 L40 76 Z" fill="#FFFFFF" opacity="0.96"/>
    <path d="M-40 -14 Q0 -30 40 -14 L40 8 L-40 8 Z" fill="#Dfe6ea"/>
    <circle cx="-14" cy="-30" r="4" fill="#8A99A5"/>
    <circle cx="0" cy="-34" r="4" fill="#8A99A5"/>
    <circle cx="14" cy="-30" r="4" fill="#8A99A5"/>
    <!-- grains -->
    <circle cx="-8" cy="-58" r="4" fill="#FFFFFF"/>
    <circle cx="8" cy="-64" r="4" fill="#FFFFFF"/>
    <circle cx="0" cy="-72" r="4" fill="#FFFFFF"/>
  </g>
  <!-- Interdit "sans" -->
  <circle cx="200" cy="200" r="118" fill="none" stroke="#E53935" stroke-width="14" opacity="0.9"/>
  <line x1="118" y1="118" x2="282" y2="282" stroke="#E53935" stroke-width="14" stroke-linecap="round" opacity="0.9"/>
</svg>
